# xmcd
#
# Track frame offsets:
#	150
#	17242
#	34262
#	50597
#	70629
#	92791
#	115104
#	137063
#	164851
#	184761
#	204376
#	229352
#	248268
#	265265
#	281184
#	312475
#	328013
#
# Disc length: 4716 seconds
#
# Revision: 1
# Processed by: cddbd v1.5.2PL0 Copyright (c) Steve Scherf et al.
# Submitted via: audiograbber 1.83.01
#
DISCID=fd126a11
DTITLE=RAD GUMBO - LIVE Neue Welt 20.09.2005
DYEAR=1900
DGENRE=
TTITLE0=Made in the Shade
TTITLE1=Fallin Rain
TTITLE2=Half a Boy and half a Man 
TTITLE3=Stagger Lee
TTITLE4=Southern Streamline
TTITLE5=The River
TTITLE6=The Breakdown
TTITLE7=No more waiting
TTITLE8=Willin
TTITLE9=Leavin Blues
TTITLE10=Brown Eyed Girl
TTITLE11=Lovesick Guy
TTITLE12=The Gumbo Stomb
TTITLE13=Going up the Country
TTITLE14=Waxenstoa Blues
TTITLE15=Whisky in the Yar
TTITLE16=Stand by me
EXTD=
EXTT0=
EXTT1=
EXTT2=
EXTT3=
EXTT4=
EXTT5=
EXTT6=
EXTT7=
EXTT8=
EXTT9=
EXTT10=
EXTT11=
EXTT12=
EXTT13=
EXTT14=
EXTT15=
EXTT16=
PLAYORDER=
